<?xml version="1.0" encoding="utf-8"?>
<!-- Generator: Adobe Illustrator 16.0.4, SVG Export Plug-In . SVG Version: 6.00 Build 0)  -->
<!DOCTYPE svg PUBLIC "-//W3C//DTD SVG 1.1//EN" "http://www.w3.org/Graphics/SVG/1.1/DTD/svg11.dtd">
<svg version="1.1" xmlns="http://www.w3.org/2000/svg" xmlns:xlink="http://www.w3.org/1999/xlink" x="0px" y="0px" width="1920px"
	 height="1280px" viewBox="0 0 1920 1280" enable-background="new 0 0 1920 1280" xml:space="preserve">
<g id="black_circle_1_">
	<ellipse id="black_circle" cx="976.564" cy="640.501" rx="648.59" ry="639.999"/>
</g>
<g id="pyroplastic">
	<text transform="matrix(1 0 0 1 565 1095)" fill="#FFFFFF" font-family="'NanotechLLC'" font-size="50">pyroplastic</text>
</g>
<g id="plasticene">
	<text transform="matrix(1 0 0 1 69.7407 370.0498)" fill="#808080" font-family="'NanotechLLC'" font-size="180">P  L  A  S  T  I  C  E  N  E</text>
</g>
<g id="arrow_1">
	<polygon id="triangle_1_2_" fill="#FFFFFF" points="849,1155.632 813.607,1163.715 820.295,1136 	"/>
	<path fill="none" stroke="#FFFFFF" stroke-width="3" stroke-miterlimit="10" d="M830.218,1159.089
		c36.807,70.227,135.995,81.047,201.472,63.57c47.831-12.767,110.428-35.308,148.658-72.266"/>
</g>
<g id="arrow_3">
	<path id="line_1_1_" fill="none" stroke="#FFFFFF" stroke-width="3" stroke-miterlimit="10" d="M1369,772
		c16.801,98.768-10.73,185.685-61.548,194.326"/>
	<polygon id="triangle_1_1_" fill="#FFFFFF" points="1301.609,952.659 1314.173,977.938 1292.154,978.283 	"/>
</g>
<g id="arrow_2">
	<g>
		<path id="line_1" fill="none" stroke="#FFFFFF" stroke-width="3" stroke-miterlimit="10" d="M1437.026,499.513
			c13.781,85.746-3.278,161.111-38.142,168.505"/>
		<polygon id="triangle_1" fill="#FFFFFF" points="1394.144,655.758 1404.293,678.41 1387,679 		"/>
	</g>
</g>
<g id="arrow_4">
	<g>
		<path id="line_1_2_" fill="none" stroke="#FFFFFF" stroke-width="3" stroke-miterlimit="10" d="M600.551,919.593
			c-43.368-38.795-68.735-97.239-56.718-130.671"/>
		<polygon id="triangle_1_3_" fill="#FFFFFF" points="551.244,792.157 536.943,787.34 544.244,772.562 		"/>
	</g>
</g>
<g id="arrow_5">
	<g>
		<path id="line_1_3_" fill="none" stroke="#FFFFFF" stroke-width="3" stroke-miterlimit="10" d="M530.376,614.707
			c-26.587-38.996-28.772-83.287-4.883-99.026"/>
		<polygon id="triangle_1_4_" fill="#FFFFFF" points="531.306,520.305 519.556,512.237 532,506 		"/>
	</g>
</g>
<g id="nurdle">
	<text transform="matrix(1 0 0 1 1366.8281 479.0439)" fill="#FFFFFF" font-family="'NanotechLLC'" font-size="50">nurdle</text>
</g>
<g id="plastitrash">
	<text transform="matrix(1 0 0 1 1216.4375 750.2168)" fill="#FFFFFF" font-family="'NanotechLLC'" font-size="50">plastitrash</text>
</g>
<g id="plastic_confetti">
	<text transform="matrix(1 0 0 1 1129.1084 1034)" fill="#FFFFFF" font-family="'NanotechLLC'" font-size="50">plastic confetti</text>
</g>
<g id="plastic_cycle_1_">
	<g id="plastic_cycle">
		<path fill="none" d="M504.325,405.839C500.158,222.042,756.327,67.431,1077.069,60.16"/>
		<text transform="matrix(0.8633 -0.5046 0.5046 0.8633 657.2812 173.4517)"><tspan x="0" y="0" fill="#FFFFFF" font-family="'NanotechLLC'" font-size="72">p</tspan><tspan x="41.891" y="0.3" fill="#FFFFFF" font-family="'NanotechLLC'" font-size="72" rotate="2.895"> </tspan><tspan x="59.869" y="1.207" fill="#FFFFFF" font-family="'NanotechLLC'" font-size="72" rotate="4.522">l</tspan><tspan x="77.712" y="2.615" fill="#FFFFFF" font-family="'NanotechLLC'" font-size="72" rotate="6.077"> </tspan><tspan x="95.481" y="4.221" fill="#FFFFFF" font-family="'NanotechLLC'" font-size="72" rotate="8.584">a</tspan><tspan x="138.526" y="10.982" fill="#FFFFFF" font-family="'NanotechLLC'" font-size="72" rotate="10.935"> </tspan><tspan x="156.201" y="14.273" fill="#FFFFFF" font-family="'NanotechLLC'" font-size="72" rotate="12.771">s</tspan><tspan x="188.053" y="21.606" fill="#FFFFFF" font-family="'NanotechLLC'" font-size="72" rotate="14.533"> </tspan><tspan x="205.545" y="26.088" fill="#FFFFFF" font-family="'NanotechLLC'" font-size="72" rotate="15.995">t</tspan><tspan x="230.099" y="33.173" fill="#FFFFFF" font-family="'NanotechLLC'" font-size="72" rotate="17.414"> </tspan><tspan x="247.391" y="38.601" fill="#FFFFFF" font-family="'NanotechLLC'" font-size="72" rotate="18.52">i</tspan><tspan x="263.227" y="43.898" fill="#FFFFFF" font-family="'NanotechLLC'" font-size="72" rotate="19.605"> </tspan><tspan x="280.24" y="49.829" fill="#FFFFFF" font-family="'NanotechLLC'" font-size="72" rotate="21.213">c</tspan></text>
		<path fill="none" d="M790.672,136.271c123.787-135.928,415.893-71.123,653.1,144.894"/>
		<text transform="matrix(0.9746 0.2241 -0.2241 0.9746 1061.707 73.7393)"><tspan x="0" y="0" fill="#FFFFFF" font-family="'NanotechLLC'" font-size="72">c</tspan><tspan x="34.605" y="0.186" fill="#FFFFFF" font-family="'NanotechLLC'" font-size="72" rotate="2.585"> </tspan><tspan x="52.423" y="0.773" fill="#FFFFFF" font-family="'NanotechLLC'" font-size="72" rotate="5.097">y</tspan><tspan x="89.508" y="4.276" fill="#FFFFFF" font-family="'NanotechLLC'" font-size="72" rotate="7.442"> </tspan><tspan x="107.285" y="6.439" fill="#FFFFFF" font-family="'NanotechLLC'" font-size="72" rotate="9.544">c</tspan><tspan x="141.499" y="12.336" fill="#FFFFFF" font-family="'NanotechLLC'" font-size="72" rotate="11.537"> </tspan><tspan x="159.243" y="15.957" fill="#FFFFFF" font-family="'NanotechLLC'" font-size="72" rotate="12.846">l</tspan><tspan x="176.737" y="19.943" fill="#FFFFFF" font-family="'NanotechLLC'" font-size="72" rotate="14.114"> </tspan><tspan x="194.201" y="24.138" fill="#FFFFFF" font-family="'NanotechLLC'" font-size="72" rotate="16.072">e</tspan></text>
	</g>
</g>
<g id="plastiglomerate">
	<text transform="matrix(1 0 0 1 564.6553 973.9531)" fill="#FFFFFF" font-family="'NanotechLLC'" font-size="50">plastiglomerate</text>
</g>
<g id="epiplastic">
	<text transform="matrix(1 0 0 1 385.4365 678.5449)" fill="#FFFFFF" font-family="'NanotechLLC'" font-size="50">epiplastic</text>
</g>
<g id="plastisphere">
	<text transform="matrix(1 0 0 1 729.5288 678.5449)" fill="#FFFFFF" font-family="'NanotechLLC'" font-size="50">plastisphere</text>
</g>
<g id="plasticized">
	<text transform="matrix(1 0 0 1 440.7422 479.0439)" fill="#FFFFFF" font-family="'NanotechLLC'" font-size="50">plasticized</text>
</g>
<g id="lines">
	<g>
		<line fill="none" stroke="#FFFFFF" stroke-miterlimit="10" x1="630.782" y1="667.782" x2="704.436" y2="667.782"/>
		<path fill="none" stroke="#FFFFFF" stroke-miterlimit="10" d="M630.782,667.782c0,5.949,32.943,10.763,73.654,10.763"/>
		<path fill="none" stroke="#FFFFFF" stroke-miterlimit="10" d="M630.782,667.782c0-7.895,32.943-14.282,73.654-14.282"/>
		<path fill="none" stroke="#FFFFFF" stroke-miterlimit="10" d="M630.782,667.782c0-3.947,32.943-7.142,73.654-7.142"/>
		<path fill="none" stroke="#FFFFFF" stroke-miterlimit="10" d="M630.782,667.782c0,2.975,32.943,5.382,73.654,5.382"/>
	</g>
</g>
<g id="plastivore">
	<text transform="matrix(1 0 0 1 384 739)" fill="#FFFFFF" font-family="'NanotechLLC'" font-size="50">plastivore</text>
</g>
<g id="plasticrust">
	<text transform="matrix(1 0 0 1 566 1033)" fill="#FFFFFF" font-family="'NanotechLLC'" font-size="50">plasticrust</text>
</g>
<g id="microplastic">
	<text transform="matrix(1 0 0 1 1129 1094)" fill="#FFFFFF" font-family="'NanotechLLC'" font-size="50">microplastic</text>
</g>
</svg>
